<svg xmlns="http://www.w3.org/2000/svg" xmlns:xlink="http://www.w3.org/1999/xlink" width="40.716" height="40.716" viewBox="0 0 40.716 40.716"><defs><style>.a{fill:#fff;}.b{filter:url(#a);}</style><filter id="a" x="0" y="0" width="40.716" height="40.716" filterUnits="userSpaceOnUse"><feOffset dy="3" input="SourceAlpha"/><feGaussianBlur stdDeviation="1.5" result="b"/><feFlood flood-opacity="0.161"/><feComposite operator="in" in2="b"/><feComposite in="SourceGraphic"/></filter></defs><g class="b" transform="matrix(1, 0, 0, 1, 0, 0)"><path class="a" d="M4.755,4A.755.755,0,0,0,4,4.755v7.551a.755.755,0,0,0,.755.755H34.961a.755.755,0,0,0,.755-.755V4.755A.755.755,0,0,0,34.961,4ZM5.51,5.51h28.7v6.041H5.51ZM8.531,7.776a.755.755,0,1,0,.755.755A.755.755,0,0,0,8.531,7.776Zm3.021,0a.755.755,0,1,0,.755.755A.755.755,0,0,0,11.551,7.776Zm3.021,0a.755.755,0,1,0,.755.755A.755.755,0,0,0,14.572,7.776ZM4,15.327V34.961a.755.755,0,0,0,.755.755H34.961a.755.755,0,0,0,.755-.755V15.327h-1.51V34.206H5.51V15.327Zm4.531,0a.755.755,0,0,0-.755.755v15.1a.755.755,0,0,0,.755.755h9.817a.755.755,0,0,0,.755-.755v-15.1a.755.755,0,0,0-.755-.755Zm12.837,0v1.51H31.94v-1.51ZM9.286,16.837h8.307V30.43H9.286ZM21.368,19.1v1.51H31.94V19.1Zm0,3.776v1.51H31.94v-1.51Zm0,3.776v1.51H31.94v-1.51Zm0,3.776v1.51H31.94V30.43Z" transform="translate(0.5 -2.5)"/></g></svg>