<svg xmlns="http://www.w3.org/2000/svg" width="20" height="20" viewBox="0 0 20 20"><defs><style>.a{fill:#a0aae3;}</style></defs><path class="a" d="M12,2A10,10,0,1,0,22,12,10,10,0,0,0,12,2Zm0,2a7.969,7.969,0,0,1,7.875,9.375,4.966,4.966,0,0,0-1.031-.125,7.279,7.279,0,0,0-1.031.094A3.651,3.651,0,0,0,18,12.219a3.681,3.681,0,0,0-1.219-2.594c.207-.77.41-2.09-.125-2.625a3.264,3.264,0,0,0-2.5,1.188A6.5,6.5,0,0,0,12.625,8a6.765,6.765,0,0,0-1.969.313l.188-.156a3.249,3.249,0,0,0-2.5-1.219c-.566.57-.309,2.016-.094,2.75A3.555,3.555,0,0,0,7,12.219a3.678,3.678,0,0,0,.156.938c-.277-.031-1.277-.125-1.687-.125a7.207,7.207,0,0,0-1.375.188A7.853,7.853,0,0,1,4,12,8.01,8.01,0,0,1,12,4ZM5.469,13.281c.395,0,1.594.141,1.75.156.02.055.039.105.063.156a10.181,10.181,0,0,0-1.812-.031,10.792,10.792,0,0,0-1.25.281c-.031-.125-.07-.246-.094-.375A7.821,7.821,0,0,1,5.469,13.281Zm13.375.219a4.77,4.77,0,0,1,1,.125c-.012.066-.047.121-.062.188a5.765,5.765,0,0,0-1.156-.156c-.234,0-.609.008-.937.031a.879.879,0,0,0,.031-.094A8.245,8.245,0,0,1,18.844,13.5Zm-12.75.281c.563,0,1.09.043,1.313.063a4.288,4.288,0,0,0,3.219,2,3.192,3.192,0,0,0-1.031.906c-.234.02-.48.031-.719.031-.7,0-1.129-.621-1.5-1.156A1.41,1.41,0,0,0,6.281,15c-.262-.031-.352.117-.219.219a4.665,4.665,0,0,1,1.344,1.906,1.628,1.628,0,0,0,1.5.875h.125A1.765,1.765,0,0,0,9,18.313v1.094a7.993,7.993,0,0,1-4.719-5.344,11.493,11.493,0,0,1,1.219-.25A4.32,4.32,0,0,1,6.094,13.781Zm12.531.125a5.336,5.336,0,0,1,1.094.156A7.983,7.983,0,0,1,16,18.906v-.594a3.154,3.154,0,0,0-1.625-2.469,4.341,4.341,0,0,0,3.156-1.906C17.91,13.91,18.355,13.9,18.625,13.906ZM12.5,18a.5.5,0,0,1,.5.5v1.438A7.68,7.68,0,0,1,12,20V18.5A.5.5,0,0,1,12.5,18Zm-2,1a.5.5,0,0,1,.5.5v.438a8.516,8.516,0,0,1-1-.187V19.5A.5.5,0,0,1,10.5,19Zm4,0a.515.515,0,0,1,.5.406,7.942,7.942,0,0,1-1,.344V19.5A.5.5,0,0,1,14.5,19Z" transform="translate(-2 -2)"/></svg>