<svg xmlns="http://www.w3.org/2000/svg" xmlns:xlink="http://www.w3.org/1999/xlink" width="49.175" height="46.341" viewBox="0 0 49.175 46.341"><defs><style>.a{fill:#fff;}.b{filter:url(#a);}</style><filter id="a" x="0" y="0" width="49.175" height="46.341" filterUnits="userSpaceOnUse"><feOffset dy="3" input="SourceAlpha"/><feGaussianBlur stdDeviation="3" result="b"/><feFlood flood-opacity="0.161"/><feComposite operator="in" in2="b"/><feComposite in="SourceGraphic"/></filter></defs><g class="b" transform="matrix(1, 0, 0, 1, 0, 0)"><path class="a" d="M19.659,1l-9.33,9.346a2.832,2.832,0,0,0-.828,2V26.507a2.833,2.833,0,0,0,2.834,2.834H25.079a2.835,2.835,0,0,0,2.6-1.716L31.945,17.7a2.835,2.835,0,0,0,.23-1.118V13.753a2.833,2.833,0,0,0-2.834-2.834h-9L21.669,4.83a2.839,2.839,0,0,0-.783-2.624ZM1,12.336v17H6.668v-17Z" transform="translate(8 5)"/></g></svg>