<svg xmlns="http://www.w3.org/2000/svg" xmlns:xlink="http://www.w3.org/1999/xlink" width="40.099" height="43.06" viewBox="0 0 40.099 43.06"><defs><style>.a{fill:#fff;}.b{filter:url(#a);}</style><filter id="a" x="0" y="0" width="40.099" height="43.06" filterUnits="userSpaceOnUse"><feOffset dy="3" input="SourceAlpha"/><feGaussianBlur stdDeviation="1.5" result="b"/><feFlood flood-opacity="0.161"/><feComposite operator="in" in2="b"/><feComposite in="SourceGraphic"/></filter></defs><g class="b" transform="matrix(1, 0, 0, 1, 0, 0)"><path class="a" d="M13.487,2a.74.74,0,0,0-.6.74V8.664a.742.742,0,0,0,.74.74h5.183v.949a1.467,1.467,0,0,0-.74,1.273H13.117a2.969,2.969,0,0,0-2.453,1.319,2.209,2.209,0,0,0-1.481-.578,2.222,2.222,0,0,0-1.388,3.957l-2.129,6.5A2.223,2.223,0,0,0,4,24.954a.741.741,0,1,0,1.481,0,.74.74,0,0,1,1.481,0,.741.741,0,1,0,1.481,0,2.226,2.226,0,0,0-1.249-1.99l2.013-6.155a2.213,2.213,0,0,0,1.111-.324l.9,9.487a2.965,2.965,0,0,0,2.939,2.684h1.689v5.183a2.233,2.233,0,0,0,2.221,2.221h3.7a2.233,2.233,0,0,0,2.221-2.221V28.656h1.573a2.978,2.978,0,0,0,2.962-2.823l.44-9.256a2.178,2.178,0,0,0,.926.231l2.013,6.155a2.226,2.226,0,0,0-1.249,1.99.741.741,0,1,0,1.481,0,.74.74,0,1,1,1.481,0,.741.741,0,1,0,1.481,0,2.223,2.223,0,0,0-1.666-2.129l-2.129-6.5a2.221,2.221,0,1,0-2.8-3.448A2.971,2.971,0,0,0,26.1,11.626H21.03a1.467,1.467,0,0,0-.74-1.273V9.4h5.183a.742.742,0,0,0,.74-.74V2.74a.742.742,0,0,0-.74-.74H13.487Zm.879,1.481H24.732V7.924H14.366Zm2.962,1.481a.74.74,0,1,0,.74.74A.742.742,0,0,0,17.328,4.962Zm4.443,0a.74.74,0,1,0,.74.74A.742.742,0,0,0,21.771,4.962Zm-8.654,8.145H26.1a1.468,1.468,0,0,1,1.481,1.55l-.532,11.107a1.474,1.474,0,0,1-1.481,1.411H14.158A1.457,1.457,0,0,1,12.7,25.833L11.636,14.726A1.471,1.471,0,0,1,13.117,13.107Zm-3.934.74a.74.74,0,1,1,0,1.481.811.811,0,0,1-.255-.046H8.882a.751.751,0,0,1,.3-1.435Zm20.732,0a.731.731,0,0,1,.74.74.739.739,0,0,1-.393.671.782.782,0,0,0-.139.046.807.807,0,0,1-.208.023.74.74,0,0,1,0-1.481ZM17.328,28.656h5.183v.74H21.03v1.481h1.481v1.481H21.03v1.481h1.481a.727.727,0,0,1-.74.74h-3.7a.727.727,0,0,1-.74-.74h1.481V32.358H17.328V30.877h1.481V29.4H17.328Z" transform="translate(0.5 -0.5)"/></g></svg>