<svg xmlns="http://www.w3.org/2000/svg" xmlns:xlink="http://www.w3.org/1999/xlink" width="37.603" height="35.707" viewBox="0 0 37.603 35.707"><defs><style>.a{fill:#fff;}.b{filter:url(#a);}</style><filter id="a" x="0" y="0" width="37.603" height="35.707" filterUnits="userSpaceOnUse"><feOffset dy="3" input="SourceAlpha"/><feGaussianBlur stdDeviation="1" result="b"/><feFlood flood-opacity="0.161"/><feComposite operator="in" in2="b"/><feComposite in="SourceGraphic"/></filter></defs><g class="b" transform="matrix(1, 0, 0, 1, 0, 0)"><path class="a" d="M1.264,3A1.273,1.273,0,0,0,0,4.264V31.443a1.273,1.273,0,0,0,1.264,1.264H8.849a1.273,1.273,0,0,0,1.264-1.264V4.264A1.273,1.273,0,0,0,8.849,3ZM11.377,3V4.264H30.339V26.386H20.345a.642.642,0,0,0-.257,0h-4.8a.642.642,0,0,0-.257,0H11.377V27.65h3.16v1.264H13.194a1.863,1.863,0,0,0-1.817,1.9v1.9H24.018v-1.9a1.863,1.863,0,0,0-1.817-1.9H20.858V27.65h9.481A1.273,1.273,0,0,0,31.6,26.386V4.264A1.273,1.273,0,0,0,30.339,3ZM1.264,4.264H8.849V31.443H1.264ZM11.377,5.528V6.792H27.811v15.17H11.377v1.264H27.811a1.273,1.273,0,0,0,1.264-1.264V6.792a1.273,1.273,0,0,0-1.264-1.264ZM5.057,27.018a1.264,1.264,0,1,0,1.264,1.264A1.263,1.263,0,0,0,5.057,27.018ZM15.8,27.65h3.792v1.264H15.8Zm-2.607,2.528H22.2a.589.589,0,0,1,.553.632v.632H12.641v-.632A.589.589,0,0,1,13.194,30.179Z" transform="translate(3 -3)"/></g></svg>