<svg xmlns="http://www.w3.org/2000/svg" xmlns:xlink="http://www.w3.org/1999/xlink" width="40.716" height="35.641" viewBox="0 0 40.716 35.641"><defs><style>.a{fill:#fff;}.b{filter:url(#a);}</style><filter id="a" x="0" y="0" width="40.716" height="35.641" filterUnits="userSpaceOnUse"><feOffset dy="3" input="SourceAlpha"/><feGaussianBlur stdDeviation="1.5" result="b"/><feFlood flood-opacity="0.161"/><feComposite operator="in" in2="b"/><feComposite in="SourceGraphic"/></filter></defs><g class="b" transform="matrix(1, 0, 0, 1, 0, 0)"><path class="a" d="M18.39,8a7.938,7.938,0,0,0-7.3,4.48,4.56,4.56,0,0,0-2.439-.674,4.212,4.212,0,0,0-4.211,4.13A6.222,6.222,0,0,0,0,22.164,6.141,6.141,0,0,0,6.134,28.3h.844V27.029H6.134a4.871,4.871,0,0,1-4.865-4.865,5.043,5.043,0,0,1,3.974-5.148l.483-.133L5.7,16.246a3,3,0,0,1,2.952-3.172,3.13,3.13,0,0,1,2.247.865l.7.7.344-.929A6.708,6.708,0,0,1,18.39,9.269a6.906,6.906,0,0,1,6.982,6.977,7.073,7.073,0,0,1-.061.876l-.051.711h.717a4.838,4.838,0,0,1,4.469,4.819,4.374,4.374,0,0,1-4.378,4.377H24.738V28.3h1.331a5.641,5.641,0,0,0,5.647-5.646,6.152,6.152,0,0,0-5.084-6.04c.006-.126.01-.247.01-.367A8.161,8.161,0,0,0,18.39,8ZM15.848,18.775a.634.634,0,0,0-.624.643V29.7a2.434,2.434,0,0,0-1.267.679,2.671,2.671,0,0,0,0,3.459,2.642,2.642,0,0,0,3.8,0,2.671,2.671,0,0,0,0-3.459,2.434,2.434,0,0,0-1.267-.679V19.418a.634.634,0,0,0-.644-.643Zm-3.8,0a.634.634,0,0,0-.479.235L9.422,21.582A5.076,5.076,0,0,0,8.246,24.83V29.7a2.434,2.434,0,0,0-1.267.679,2.671,2.671,0,0,0,0,3.459,2.519,2.519,0,0,0,1.9.808,2.519,2.519,0,0,0,1.9-.808,2.671,2.671,0,0,0,0-3.459A2.434,2.434,0,0,0,9.515,29.7V24.83a3.805,3.805,0,0,1,.882-2.436l2.142-2.571a.634.634,0,0,0-.494-1.048Zm7.607,0a.634.634,0,0,0-.474,1.048l2.142,2.571A3.8,3.8,0,0,1,22.2,24.83V29.7a2.434,2.434,0,0,0-1.267.679,2.671,2.671,0,0,0,0,3.459,2.642,2.642,0,0,0,3.8,0,2.671,2.671,0,0,0,0-3.459A2.434,2.434,0,0,0,23.47,29.7V24.83a5.075,5.075,0,0,0-1.176-3.248l-2.143-2.571A.634.634,0,0,0,19.651,18.776ZM8.862,30.843H8.9a1.176,1.176,0,0,1,.933.373,1.4,1.4,0,0,1,0,1.774,1.168,1.168,0,0,1-.953.382,1.168,1.168,0,0,1-.953-.382,1.4,1.4,0,0,1,0-1.774A1.175,1.175,0,0,1,8.862,30.843Zm6.977,0h.038a1.176,1.176,0,0,1,.933.373,1.4,1.4,0,0,1,0,1.774,1.168,1.168,0,0,1-.953.382,1.168,1.168,0,0,1-.953-.382,1.4,1.4,0,0,1,0-1.774A1.175,1.175,0,0,1,15.839,30.843Zm6.977,0h.038a1.176,1.176,0,0,1,.933.373,1.4,1.4,0,0,1,0,1.774,1.38,1.38,0,0,1-1.905,0,1.4,1.4,0,0,1,0-1.774A1.175,1.175,0,0,1,22.817,30.843Z" transform="translate(4.5 -6.5)"/></g></svg>