<svg xmlns="http://www.w3.org/2000/svg" xmlns:xlink="http://www.w3.org/1999/xlink" width="40.231" height="44.49" viewBox="0 0 40.231 44.49"><defs><style>.a{fill:#fff;}.b{filter:url(#a);}</style><filter id="a" x="0" y="0" width="40.231" height="44.49" filterUnits="userSpaceOnUse"><feOffset dy="3" input="SourceAlpha"/><feGaussianBlur stdDeviation="1.5" result="b"/><feFlood flood-opacity="0.161"/><feComposite operator="in" in2="b"/><feComposite in="SourceGraphic"/></filter></defs><g class="b" transform="matrix(1, 0, 0, 1, 0, 0)"><path class="a" d="M5.129,0A2.141,2.141,0,0,0,3,2.129V25.553a2.141,2.141,0,0,0,2.129,2.129h9.937v-1.42H5.129a.7.7,0,0,1-.71-.71V2.129a.7.7,0,0,1,.71-.71h14.2a.7.7,0,0,1,.71.71V7.1h1.42V2.129A2.141,2.141,0,0,0,19.326,0ZM6.416,2.839a.71.71,0,0,0-.577.71V22a.711.711,0,0,0,.71.71h8.518v-1.42H7.259V4.259H17.2V7.1h1.42V3.549a.711.711,0,0,0-.71-.71H6.416Zm11.49,4.969a2.141,2.141,0,0,0-2.129,2.129V33.361a2.141,2.141,0,0,0,2.129,2.129H32.1a2.141,2.141,0,0,0,2.129-2.129V9.937A2.141,2.141,0,0,0,32.1,7.808Zm0,1.42H32.1a.7.7,0,0,1,.71.71V33.361a.7.7,0,0,1-.71.71h-14.2a.7.7,0,0,1-.71-.71V9.937A.7.7,0,0,1,17.906,9.227Zm1.287,1.42a.71.71,0,0,0-.577.71V29.812a.711.711,0,0,0,.71.71H30.682a.711.711,0,0,0,.71-.71V11.357a.711.711,0,0,0-.71-.71H19.192Zm.843,1.42h9.937V29.1H20.035ZM12.227,23.424a1.065,1.065,0,1,0,1.065,1.065A1.065,1.065,0,0,0,12.227,23.424ZM25,31.231A1.065,1.065,0,1,0,26.069,32.3,1.065,1.065,0,0,0,25,31.231Z" transform="translate(1.5 1.5)"/></g></svg>