<svg xmlns="http://www.w3.org/2000/svg" width="160.851" height="187.718" viewBox="0 0 160.851 187.718"><defs><style>.a,.f,.h,.k,.l,.n,.o,.q{fill:none;stroke-linecap:round;stroke-linejoin:round;}.a{stroke:#aadaf1;}.a,.f,.h,.n,.o,.q{stroke-width:2px;}.b{fill:#fff;}.b,.c,.d,.e,.g,.i,.j,.m,.p{fill-rule:evenodd;}.c{fill:#dedede;}.d{fill:#f77f89;}.e{fill:#6480f4;}.f{stroke:#4c4fd9;}.g{fill:#f7d167;}.h{stroke:#ff3274;}.i{fill:#bf9111;}.j{fill:#3b4161;}.k{stroke:#6480f4;stroke-width:6.77px;}.l{stroke:#fff;stroke-width:3.05px;}.m{fill:#cb5d66;}.n{stroke:#737999;}.o{stroke:#cb5d66;}.p{fill:#f2e283;}.q{stroke:#c9c9c9;}</style></defs><g transform="translate(0 0.041)"><g transform="translate(0 0.999)"><path class="a" d="M327.474,187.78H311.888a.548.548,0,0,0-.548.548V196a.548.548,0,0,0,.548.548h15.586a.548.548,0,0,0,.548-.548v-7.676A.548.548,0,0,0,327.474,187.78Z" transform="translate(-225.985 -136.574)"/><path class="a" d="M297.031,155.71H281.448a.548.548,0,0,0-.548.548v7.676a.548.548,0,0,0,.548.548h15.583a.548.548,0,0,0,.548-.548v-7.676A.548.548,0,0,0,297.031,155.71Z" transform="translate(-203.89 -113.296)"/><path class="a" d="M266.581,187.78H251a.548.548,0,0,0-.548.548V196a.548.548,0,0,0,.548.548h15.583a.548.548,0,0,0,.548-.548v-7.676A.548.548,0,0,0,266.581,187.78Z" transform="translate(-181.788 -136.574)"/><path class="a" d="M356.961,219.84H341.378a.548.548,0,0,0-.548.548v7.676a.548.548,0,0,0,.548.548h15.583a.548.548,0,0,0,.548-.548v-7.676A.548.548,0,0,0,356.961,219.84Z" transform="translate(-247.39 -159.844)"/><path class="b" d="M301.9,563.85H354.7a1.316,1.316,0,0,1,1.316,1.316h0a1.316,1.316,0,0,1-1.316,1.313H301.9a1.316,1.316,0,0,1-1.316-1.313h0A1.316,1.316,0,0,1,301.9,563.85Z" transform="translate(-218.175 -409.543)"/><path class="b" d="M1.313,592.73H54.129a1.311,1.311,0,0,1,1.313,1.313h0a1.311,1.311,0,0,1-1.313,1.313H1.313A1.313,1.313,0,0,1,0,594.043H0a1.313,1.313,0,0,1,1.313-1.313Z" transform="translate(0 -430.505)"/><path class="c" d="M237.594,567.59a22.552,22.552,0,0,0-20.7,13.623,8.041,8.041,0,0,0-10.031-.052,13.724,13.724,0,0,0-24.589-1.464A10.418,10.418,0,0,0,167,585.018c.241,0,.469-.069.713-.069H272.086a8.447,8.447,0,0,0-13.9-3.967A22.535,22.535,0,0,0,237.594,567.59Z" transform="translate(-121.216 -412.257)"/><path class="c" d="M142.893,621.33H262.3a1.316,1.316,0,0,1,1.313,1.316h0a1.316,1.316,0,0,1-1.313,1.313H142.893a1.316,1.316,0,0,1-1.313-1.313h0a1.316,1.316,0,0,1,1.313-1.316Z" transform="translate(-102.765 -451.264)"/><path class="d" d="M66.474,566.4,63,571.266l7.155,8.968,3.29-5.757Z" transform="translate(-45.728 -411.394)"/><path class="e" d="M40.055,576.08l-8.225,9.5,12.921,15.078s8.576-.093,11.284-.093c-.055-3.29-2.445-10.105-9.1-9.842,1.343-2.358,2.3-4.3,2.3-4.3Z" transform="translate(-23.104 -418.42)"/><path class="f" d="M44.612,628.5c-3.72-1.149-5.412.348-8.022,3.117-1.823,1.935-5.623,1.771-7.95.661" transform="translate(-20.788 -456.185)"/><path class="f" d="M55.8,641.615a25.15,25.15,0,0,0,3.786,1.28c3.4-3.016,5.42-10.174,4.781-13.365" transform="translate(-40.502 -457.216)"/><path class="f" d="M45.6,589.72a5.563,5.563,0,0,1-1.552,9.7" transform="translate(-31.974 -428.32)"/><path class="f" d="M37.06,604.67l12.718,13.889,9.423-.548" transform="translate(-26.9 -439.172)"/><path class="g" d="M92.886,411.436,71.14,451.29l8.326,9.746,39.294-40.547L110.136,408.3Z" transform="translate(-51.637 -296.637)"/><path class="h" d="M92.32,554.914l-9.7-10.854" transform="translate(-59.969 -395.178)"/><path class="i" d="M144.487,408.31l-17.244,3.136-8.773,16.09,15.059-.359,4.91,8.463L153.115,420.5Z" transform="translate(-85.991 -296.645)"/><path class="h" d="M84.56,468.967c8.91-10.437,36.188-42.247,36.188-42.247" transform="translate(-61.378 -310.007)"/><path class="d" d="M300.58,605.491l2.626,5.483,11.772-2.13-1.946-6.6Z" transform="translate(-218.175 -437.408)"/><path class="e" d="M303.79,624.548l4.022,11.514s23.267-4.661,25.036-5.118c-3.29-7.731-10.039-6.434-13-5.694a42.539,42.539,0,0,1-1.985-4.34Z" transform="translate(-220.505 -450.96)"/><path class="f" d="M361.067,620.844c.477-1.552,1.585-2.585,2.467-2.311s1.223,1.749.746,3.29-1.585,2.583-2.467,2.311S360.59,622.393,361.067,620.844Z" transform="translate(-261.923 -449.203)"/><path class="f" d="M372.316,622.965c1.234-1.264,2.769-1.661,3.432-.886s.2,2.429-1.036,3.693-2.769,1.664-3.432.888S371.083,624.237,372.316,622.965Z" transform="translate(-269.273 -451.521)"/><path class="d" d="M326.879,296.144a18.441,18.441,0,0,0,4.916,3.317c2.906.7,8.225,6.533,8.225,7.789A1.709,1.709,0,0,1,338.3,308.9c-.57.036-1.785-1.283-2.092-1.659.529,1.206.836,2.84.25,3.353a1.362,1.362,0,0,1-2.007.027,4.61,4.61,0,0,1-.8-3.071c-.466-.891-1.735-2.873-2.273-3.114a1,1,0,0,0-1.047.751c-.107.6,1.289,1.941,1.445,2.5,0,.71-.776,1.612-1.445,1.434-.762-.2-3.12-2.492-3.641-3.117-.7-.842-1.02-2.676-1.4-3.29a19.133,19.133,0,0,0-2.105-2.193C322.915,300.243,325.423,294.963,326.879,296.144Z" transform="translate(-234.569 -215.105)"/><path class="j" d="M276.536,191.2c5.239,4.449,13.08,21.973,18.119,26.286-.526,2.706-8.874,12.784-14.774,10.382C272.49,224.858,272.58,187.842,276.536,191.2Z" transform="translate(-198.784 -138.9)"/><path class="g" d="M239.92,274.925l5.863,33.289,9.671,54.914-16.274,3.838-21.37-56.075,5.308-38.971Z" transform="translate(-158.097 -197.646)"/><path class="h" d="M228.2,441.322,220.56,421.27" transform="translate(-160.093 -306.052)"/><path class="h" d="M255.1,403.515,230,324.57" transform="translate(-166.945 -235.862)"/><path class="h" d="M256.416,311.42c-2.193.918-13.433,2.994-17.776,2.539" transform="translate(-173.216 -226.317)"/><path class="e" d="M109.462,234.6l29.474,3.128a3.3,3.3,0,0,1,2.824,3.7l-4.787,45.084a3.28,3.28,0,0,1-3.537,3.016l-29.474-3.117a3.3,3.3,0,0,1-2.824-3.7l4.784-45.084A3.3,3.3,0,0,1,109.462,234.6Z" transform="translate(-73.397 -170.546)"/><path class="f" d="M135.08,305.08a11.24,11.24,0,1,1,11.24,11.24A11.24,11.24,0,0,1,135.08,305.08Z" transform="translate(-98.047 -213.557)"/><path class="d" d="M173.44,37.479c0-2.8,1.576-5.069,3.523-5.069s3.526,2.27,3.526,5.069-1.579,5.069-3.526,5.069S173.44,40.278,173.44,37.479Z" transform="translate(-125.891 -23.799)"/><path class="d" d="M180.68,30.789a11.259,11.259,0,1,1,11.259,11.259A11.259,11.259,0,0,1,180.68,30.789Z" transform="translate(-131.146 -14.45)"/><path class="d" d="M161.142,318.409a18.664,18.664,0,0,0-.606,11.879c-3.06,4.729-1.631,8.06,5.376,8.9a36.911,36.911,0,0,0,3.676-4.46,32.9,32.9,0,0,0,.428-5.519c.074-1.574-2.232-7.8-1.659-10.6S161.666,316.66,161.142,318.409Z" transform="translate(-115.419 -230.22)"/><path class="j" d="M162.439,115.45c-16.2,0-22.363,34.036-20.594,55.815,3.358,2.119,16.762,2.944,20.594,1.938.822-3.824,1.1-19.829,1.28-22.434,8.946.877,7.4,2.262,6.322,14.234a40.915,40.915,0,0,0,15.627-3.065C186.326,153.73,181.5,115.45,162.439,115.45Z" transform="translate(-102.745 -84.073)"/><path class="k" d="M135.08,159.189l2.138-20.466a12.137,12.137,0,0,1,13.332-10.81l2.295.239a12.137,12.137,0,0,1,10.81,13.332l-2.193,21.041" transform="translate(-98.047 -93.071)"/><path class="d" d="M193.446,81.155a45.471,45.471,0,0,1,.916,10.741c2.147,1.267,7.712,2.147,10.388-1.445-1.267-3.062-1.549-4.543-1.442-6.306S192.6,77.528,193.446,81.155Z" transform="translate(-140.378 -58.228)"/><path class="b" d="M206.589,62.5c-.238-1.946,1.162-6.528,1.963-7.164a15.122,15.122,0,0,0,12.956-6.552,8.872,8.872,0,0,1,1.505,3.125c.195.746.025,1.269-1.25,2.339C221.439,58.639,217.451,65.616,206.589,62.5Z" transform="translate(-149.932 -35.681)"/><path class="l" d="M192.584,58.793s-6.854-5.609-8.844-5.883" transform="translate(-133.367 -38.679)"/><path class="m" d="M236.39,48.258c0-.976.318-1.768.71-1.768s.71.792.71,1.768-.318,1.768-.71,1.768S236.39,49.234,236.39,48.258Z" transform="translate(-171.583 -34.019)"/><path class="n" d="M163.063,298.169c-2.607.376-16.792-.238-21.483-2.169" transform="translate(-102.765 -215.125)"/><path class="n" d="M209.3,164.988c-.184-5.365,4.7-22.785-4.951-29.948" transform="translate(-148.327 -98.292)"/><path class="n" d="M209.3,244.17l-4.954,2.122" transform="translate(-148.327 -177.504)"/><path class="n" d="M205.14,242.45l4.751.334" transform="translate(-148.9 -176.256)"/><path class="n" d="M207.71,230.26l4.052,3.641" transform="translate(-150.766 -167.408)"/><path class="n" d="M294.536,225.974c.274-3.589-.483-12.924-3.016-22.294" transform="translate(-211.599 -148.114)"/><path class="n" d="M311.5,271.79a27.57,27.57,0,0,1-9.294,8.883" transform="translate(-219.358 -197.552)"/><path class="h" d="M277.688,299.519c-.23-1.387-1.058-6.539-1.058-6.539" transform="translate(-200.791 -212.933)"/><path class="h" d="M304.49,584.6l-17.79,2.807" transform="translate(-208.1 -424.604)"/><path class="h" d="M307.749,433.634a8.349,8.349,0,0,1-.949.052,8.586,8.586,0,0,1-2.045-16.926" transform="translate(-216.456 -302.778)"/><path class="f" d="M315.67,655.718,340.555,651" transform="translate(-229.128 -472.8)"/><path class="f" d="M308.41,647.463a5.571,5.571,0,0,1,7.41,6.61" transform="translate(-223.858 -469.954)"/><path class="l" d="M190.889,83.657A10.753,10.753,0,0,1,184.77,78.5" transform="translate(-134.115 -57.253)"/><path class="d" d="M172.7,58.81a3.627,3.627,0,1,1,3.624,3.624A3.627,3.627,0,0,1,172.7,58.81Z" transform="translate(-125.354 -40.326)"/><path class="o" d="M189.388,72.29a3.627,3.627,0,0,1-3.468,2.563" transform="translate(-134.949 -52.745)"/><path class="o" d="M175.49,56.806a3.619,3.619,0,0,1,2.1-1.316" transform="translate(-127.379 -40.551)"/><path class="p" d="M182.088,1.312a12.129,12.129,0,0,0-9.1,14.544l23.64-5.447a12.129,12.129,0,0,0-14.544-9.1Z" transform="translate(-125.339 -0.999)"/><path class="p" d="M221.495,18.255l17.082-3.937c1.415-.329,2.742.222,2.983,1.223h0c.23,1-.729,2.081-2.147,2.41l-17.082,3.937c-1.417.326-2.742-.222-2.983-1.225h0C219.115,19.658,220.077,18.581,221.495,18.255Z" transform="translate(-159.188 -10.597)"/><path class="o" d="M162.75,383.764a16.754,16.754,0,0,0,1.955-2.514" transform="translate(-118.132 -277.003)"/><path class="o" d="M173.79,383.512a30.456,30.456,0,0,0,3.7-4.872" transform="translate(-126.145 -275.109)"/><path class="o" d="M350.49,326.578c1.727-1.434,4.422,1.5,5.648,2.687" transform="translate(-254.402 -237.039)"/><path class="o" d="M182.4,65.874a1.541,1.541,0,0,1-.628.132,1.563,1.563,0,1,1,.8-2.9" transform="translate(-130.806 -45.915)"/><path class="h" d="M188.037,1.394A12.137,12.137,0,0,0,172.92,11.922" transform="translate(-125.513 -1.005)"/><path class="q" d="M238.3,48.78a8.872,8.872,0,0,1,1.505,3.125c.195.746.025,1.269-1.25,2.339a9.638,9.638,0,0,1-8.858,8.97" transform="translate(-166.727 -35.681)"/></g></g></svg>